Motion_pl01
version=1
nRows=8
nColumns=43
inDegrees=yes
endheader
time	pelvis_tilt	pelvis_list	pelvis_rotation	pelvis_tx	pelvis_ty	pelvis_tz	hip_flexion_r	hip_adduction_r	hip_rotation_r	knee_angle_r	ankle_angle_r	subtalar_angle_r	mtp_angle_r	hip_flexion_l	hip_adduction_l	hip_rotation_l	knee_angle_l	ankle_angle_l	subtalar_angle_l	mtp_angle_l	lumbar_extension	lumbar_bending	lumbar_rotation	neck_flexion	neck_lateral_bending	neck_rotation	arm_flex_r	arm_add_r	arm_rot_r	elbow_flex_r	pro_sup_r	wrist_flex_r	wrist_dev_r	hand_finger_flex_r	arm_flex_l	arm_add_l	arm_rot_l	elbow_flex_l	pro_sup_l	wrist_flex_l	wrist_dev_l	hand_finger_flex_l
      2.20000000	     -3.28210325	    -32.09153638	     85.54446809	      0.01440670	      1.78403243	      1.79393155	     95.29549547	     -2.24797961	      3.57933467	    -92.50173096	      9.57626779	      4.76042747	     17.54769919	     92.04827228	    -10.87946345	     -2.50755804	    -95.42869710	     26.85121439	      4.66739863	      5.38696100	    -36.59560574	     -5.92821793	      3.79724077	     22.38691227	      5.71654568	     -3.98320833	     13.83299309	    -52.62690584	    -91.44774869	    126.40284090	    140.01741537	     10.97509161	     22.84055130	    -28.13070860	    -10.61557939	    -46.23344609	    -96.80666627	    124.62567052	    124.21188966	    -21.33168741	     25.28521097	     10.09853364
      2.20250000	     -3.28261970	    -32.09096673	     85.54517192	      0.01440611	      1.78404479	      1.79393064	     95.29518279	     -2.24742987	      3.57883905	    -92.50062485	      9.57639368	      4.76043248	     17.54772148	     92.04818686	    -10.87952895	     -2.50751261	    -95.42840095	     26.85119009	      4.66739463	      5.38696552	    -36.59468384	     -5.92866441	      3.79681564	     22.38689778	      5.71669375	     -3.98321789	     13.83250439	    -52.62678913	    -91.44775560	    126.40288659	    140.01723954	     10.97511181	     22.84074296	    -28.13063711	    -10.61558077	    -46.23237735	    -96.80663227	    124.62501051	    124.21174916	    -21.33176586	     25.28540986	     10.09851030
      2.20500000	     -3.28327475	    -32.09035094	     85.54585498	      0.01440565	      1.78405645	      1.79393033	     95.29483586	     -2.24683881	      3.57824201	    -92.49951148	      9.57652784	      4.76042458	     17.54774376	     92.04809171	    -10.87959351	     -2.50748075	    -95.42810478	     26.85116238	      4.66739308	      5.38696986	    -36.59371676	     -5.92901183	      3.79635815	     22.38688217	      5.71684374	     -3.98322713	     13.83200327	    -52.62664190	    -91.44777661	    126.40290553	    140.01706441	     10.97513268	     22.84093822	    -28.13056475	    -10.61558462	    -46.23128537	    -96.80659991	    124.62434094	    124.21160490	    -21.33184349	     25.28561208	     10.09848927
      2.20750000	     -3.28405964	    -32.08967391	     85.54651303	      0.01440590	      1.78406657	      1.79393036	     95.29446670	     -2.24621004	      3.57754602	    -92.49836834	      9.57666991	      4.76040375	     17.54776604	     92.04798253	    -10.87964534	     -2.50746254	    -95.42780809	     26.85113134	      4.66739371	      5.38697399	    -36.59270540	     -5.92926010	      3.79586851	     22.38686572	      5.71699466	     -3.98323561	     13.83149019	    -52.62646142	    -91.44781276	    126.40289317	    140.01689061	     10.97515432	     22.84113710	    -28.13049163	    -10.61559035	    -46.23016754	    -96.80656923	    124.62366091	    124.21145683	    -21.33192019	     25.28581770	     10.09847056
      2.21000000	     -3.10364131	    -32.59532256	     85.55668936	      0.01443965	      1.78423529	      1.79366536	     95.56568300	     -2.16447682	      3.30379312	    -92.22635943	      9.30555097	      5.12686579	     17.92836669	     92.40949953	    -10.89980102	     -2.27071755	    -95.15861725	     26.95458095	      4.59116706	      5.53772424	    -36.09146924	     -5.76879462	      4.13593827	     22.41944080	      6.17283644	     -3.41838883	     11.59635486	    -52.77813236	    -92.62972205	    126.93887527	    137.53939303	     10.13704601	     25.61534302	    -27.39279393	    -10.86311379	    -45.61554986	    -96.31147193	    124.62657677	    122.52872436	    -23.20122354	     24.94524360	      9.54234549
      2.21250000	     -3.10414509	    -32.59484234	     85.55705281	      0.01442714	      1.78423811	      1.79365789	     95.56592056	     -2.16426422	      3.30336038	    -92.22635150	      9.30565336	      5.12673921	     17.92838943	     92.40955679	    -10.89996778	     -2.27076893	    -95.15861016	     26.95453866	      4.59117225	      5.53772796	    -36.09136090	     -5.76876770	      4.13586040	     22.41950004	      6.17275638	     -3.41852666	     11.59631999	    -52.77807238	    -92.62970311	    126.93880662	    137.53929447	     10.13698944	     25.61530491	    -27.39278012	    -10.86291759	    -45.61550761	    -96.31151061	    124.62647124	    122.52867865	    -23.20127092	     24.94526974	      9.54233030
      2.21500000	     -3.10465373	    -32.59425686	     85.55727600	      0.01442556	      1.78423895	      1.79365742	     95.56607421	     -2.16412122	      3.30294122	    -92.22628881	      9.30576984	      5.12661273	     17.92841218	     92.40960032	    -10.90007883	     -2.27083680	    -95.15860556	     26.95449540	      4.59117836	      5.53773166	    -36.09113087	     -5.76860808	      4.13575379	     22.41956550	      6.17267658	     -3.41866287	     11.59627707	    -52.77796435	    -92.62971240	    126.93868515	    137.53919992	     10.13693380	     25.61527389	    -27.39276601	    -10.86272098	    -45.61541973	    -96.31156111	    124.62635189	    122.52863028	    -23.20131968	     24.94530097	      9.54231666
      2.21750000	     -3.10533527	    -32.59342556	     85.55753729	      0.01442498	      1.78423958	      1.79365691	     95.56627623	     -2.16389832	      3.30239607	    -92.22612133	      9.30589229	      5.12647148	     17.92843492	     92.40964347	    -10.90014542	     -2.27091066	    -95.15859713	     26.95445216	      4.59118405	      5.53773532	    -36.09078124	     -5.76836982	      4.13562249	     22.41963704	      6.17259427	     -3.41879692	     11.59622564	    -52.77781571	    -92.62974680	    126.93851834	    137.53910912	     10.13687895	     25.61524798	    -27.39275172	    -10.86252403	    -45.61528656	    -96.31162419	    124.62621214	    122.52857944	    -23.20136960	     24.94533826	      9.54230429
